<svg xmlns:rdf="http://www.w3.org/1999/02/22-rdf-syntax-ns#" xmlns="http://www.w3.org/2000/svg" height="100%" width="100%" version="1.1" xmlns:cc="http://creativecommons.org/ns#" xmlns:dc="http://purl.org/dc/elements/1.1/" viewBox="0 0 512 512">
 <g id="fif">
  <g id="g3351" transform="translate(-5.6217 1.8739)">
   <g id="text3340" transform="scale(.90754 1.1019)">
    <path id="path3345" d="m30.309 332.88q0-1.7698 0.75849-5.3094t2.5283-4.5509q1.0113 0 3.034 0 2.2755-0.25283 4.8038-0.25283t4.5509 0q2.2755-0.25283 3.034-0.25283 3.5396 0 6.8264-0.25283 3.5396-0.25283 7.0792-1.7698v-0.75849q0-1.2642-1.517-1.0113-1.517 0-1.517-1.2641v-0.75849q1.2641-3.5396 1.517-7.332 0.25283-3.7924 0.25283-7.332 0-1.7698 0-3.7924 0-2.2755-0.50566-4.0453 0.50566-16.181 0-32.109-0.50566-16.181 0.50566-32.615 0-0.50565-0.50566-1.517-0.25283-1.0113-0.25283-1.517-1.0113-10.619-1.7698-21.49-0.75849-10.872-1.2641-21.996-0.50566-10.619-1.2641-21.238-0.50566-10.619-0.25283-20.985 0.25283-2.0226 1.0113-2.5283 0.75849-0.50566 0.75849-2.2755t-0.75849-2.0226q-0.50566-0.50566-2.2755-1.0113-1.0113 0-3.2868 0t-5.0566 0q-2.5283-0.25283-4.8038-0.25283t-3.034 0q-3.034 0-5.8151-1.0113t-2.7811-4.5509q0.25283-2.2755 0.25283-5.5622 0-3.2868 2.2755-4.5509 12.136 0.50565 25.283 0.50565 13.4-0.25283 26.8-0.50565 13.653-0.50566 26.8-0.75849 13.4-0.50566 25.536-0.25283 2.7811 0.25283 3.5396 0 1.0113-0.25283 3.034 1.0113l0.75849-0.75849h5.5622 3.2868q1.0113 0 2.0226 0.25283l2.2755 0.75848q0.50566 0 1.7698-0.25282 1.517-0.50566 2.0226-0.50566h5.5622q2.2755 0 6.8264 0.25283t9.3547 0.50565q5.0566 0.25283 9.6075 0.50566 4.8038 0.25283 7.0792 0.25283 4.5509 6.0679 8.0905 13.147 3.5396 6.8264 2.2755 14.917 0 0.50566 0.50565 3.5396 0.50566 2.7811 1.0113 6.0679 0.50566 3.034 1.0113 6.0679 0.50566 2.7811 0.50566 3.2868v0.75849q0 1.0113-1.517 2.0226-1.517 0.75849-3.5396 1.517-2.0226 0.75849-4.0453 1.2642-1.7698 0.50566-2.5283 0.50566-2.0226 0-4.2981-2.7811t-4.2981-6.3207-3.7924-6.8264q-1.7698-3.5396-2.7811-5.0566-0.25283-0.50566-1.2642-1.7698-1.0113-1.2641-2.2755-2.5283t-2.5283-2.2755q-1.0113-1.0113-1.7698-1.2642-0.75849-3.2868-1.7698-4.5509-0.75849-1.2641-2.0226-1.517-1.2642-0.50566-3.2868-0.25283-2.0226 0-4.8038-0.25283-0.25283 0-2.2755-0.50566-1.0113-0.25283-1.7698-0.25283h-0.75849l-1.517 0.75849q-1.2642 0-5.0566 0-3.5396-0.25283-4.8038-0.25283-0.50566 0-2.5283 0.50566-1.7698 0.25283-2.2755 0.25283h-0.75848-0.75849q-2.5283-0.75849-4.2981-0.75849-1.7698-0.25283-3.2868-0.25283-1.517-0.25283-3.2868-0.50566-1.517-0.50566-4.0453-1.7698-2.5283 0-4.0453 0.50566-1.2642 0.50566-2.2755 1.7698-0.75849 1.0113-1.517 2.7811-0.50566 1.517-1.7698 3.2868v11.377q-1.0113 0.75849-1.0113 2.2755t0.25283 4.5509q0.25283 3.034 0.25283 6.3207 0.25283 3.2868 0.50566 6.3207 0.25283 2.7811 0.25283 4.2981 0 2.2755-2.2755 3.034-2.2755 0.75849-4.0453 0.75849 0.50565 3.034 1.7698 6.0679 1.2642 3.034 3.5396 4.8038l-0.75849 0.75849v0.75849q0 0.50566-0.25282 0.75849 0 0.25283 0 0.75849 0 5.3094 1.517 7.0792 1.517 1.517 3.5396 1.7698 2.2755 0.25283 4.0453 0.25283 2.0226 0 2.5283 2.0226 0.25283-0.75849 1.2642-1.0113 1.2642-0.50566 2.5283-0.50566 1.517-0.25283 2.7811 0 1.2641 0 1.7698 0 2.5283 0.25283 3.7924 0.75849 1.2642 0.50566 2.2755 0.75849t2.2755 0.25283 3.7924-0.75849q1.7698 0 3.2868 0.50566 1.7698 0.50566 3.5396 0.50566h2.2755q0-0.50566 0.25283-1.517 0.50566-1.0113 0.50566-1.517 0-0.50566 0-3.7924 0-3.2868 0-7.0792 0.25283-4.0453 0.25283-7.332 0-3.2868 0-3.7924 0.25283-0.75849 0.50565-1.2642 0.50566-1.0113 1.2642-1.0113l13.147 0.25283q0.25283 0.25283 0.75849 0.50565 1.2641 0.75849 1.517 1.0113 0.25283 0.25283 0.75849 1.0113 0.50566 0.50566 1.0113 1.0113l1.2641 1.2641v1.517q0.25283 3.7924 0.25283 11.377 0.25283 7.332 0.25283 15.675 0.25283 8.0905 0.25283 15.423 0.25283 7.332 0.50566 11.124 0 0.50566 0.25283 2.0226 0.50566 1.517 0.50566 2.0226v3.7924q0 0.50566-0.25283 2.2755 0 1.7698 0 2.2755-0.25283 0.75849-1.2642 1.2642-1.0113 0.25282-2.2755 0.25282t-2.2755 0q-1.0113-0.25282-1.2641-0.25282h-4.5509q-1.517-1.2642-2.5283-4.2981-0.75849-3.034-1.517-6.5736-0.75849-3.7924-1.517-7.0792-0.75848-3.2868-1.517-4.8038-2.5283-3.5396-6.0679-3.5396-3.5396-0.25283-7.0792-0.50566-2.7811-0.50565-4.5509-0.75848t-3.5396-0.50566q-1.517-0.25283-3.5396 0-2.0226 0-5.0566 0.25283-3.7924-0.25283-5.3094 0.25283-1.2642 0.50566-4.5509 1.0113l-1.0113 1.517-0.75849 0.75849q0 1.2641-0.50565 4.8038-0.50566 3.2868-0.50566 4.5509l-0.75849 1.517q0 0.50566 0 2.0226 0.25283 1.2642 1.517 1.7698 0 2.5283 0 3.5396 0 0.75849 0.25282 1.2642 0.25283 0.50566 0.25283 1.2641 0 0.75849 0 3.5396v3.034l-1.517 3.034 0.50566 2.2755q0.50566 7.5849 1.2641 15.17 1.0113 7.5849 0.75849 15.675 0 4.5509-0.50566 9.6075t-0.50566 9.6075q0 0.50566-0.25283 2.2755 0 1.7698 0 2.5283-0.75848 1.2642 0.50566 1.517 1.2642 0 1.7698 0 2.2755 0.25283 4.5509-0.50566 2.5283-0.75849 5.3094-0.75849 1.2642 0 1.0113 0.25283 0 0-0.50566 0.25283-0.25283 0-0.25283 0.25283 0 0 1.0113 0 2.2755 0 4.2981-0.25283t4.8038-0.25283h6.3207q1.2642 0 2.0226 2.0226 0.75849 2.0226 1.2642 4.5509 0.50566 2.2755 0.75849 4.2981t0.25283 2.2755q0 0.50566-1.0113 1.517-0.75849 1.0113-1.2642 1.0113l-17.698-0.50566q-0.50566 2.2755-2.0226 2.2755-1.2642 0-2.5283 0l-1.7698 0.75848h-0.75849l-3.034-1.0113q-3.5396 0-6.0679 0.75848-2.5283 0.75849-5.3094 0.75849-2.0226-0.25283-3.2868-0.50566-1.0113-0.50566-2.2755-0.50566-5.0566 0-11.124 0-5.8151 0-10.366 1.2642l-40.958-0.75849q-1.2641 0.50566-4.5509 1.517-3.2868 1.2642-4.5509 1.2642h-2.5283q-2.2755-0.25283-3.034-1.0113-0.75849-0.75849-0.75849-3.034zm70.034-68.011q-0.50566 0-0.50566 0.75849t0.50566 0.75849 0.50566-0.75849-0.50566-0.75849zm-2.2755-7.0792q-0.50566 0-0.50566 0.75849t0.50566 0.75849 0.50566-0.75849-0.50566-0.75849zm-4.8-28.57q-0.50566 0-0.50566 0.75849t0.50566 0.75849 0.50566-0.75849-0.50566-0.75849zm9.6075-10.619q-0.50565 0-0.75848 1.0113 0 0.75849 0.50565 0.75849 0.50566 0 0.50566-0.75849 0.25283-1.0113-0.25283-1.0113zm17.698 7.0792q-0.50566 0-0.50566 0.75849t0.50566 0.75849 0.50566-0.75849-0.50566-0.75849zm15.675-10.366q-0.50566 0-0.50566 0.50566 0 0.25283 0.50566 0.25283t0.50566-0.25283q0-0.50566-0.50566-0.50566zm1.2641 0q-0.50565 0-0.50565 0.75849t0.50565 0.75849q0.50566 0 0.50566-0.75849t-0.50566-0.75849zm-5.0566-0.75849q-0.50566 0-0.50566 0.75849t0.50566 0.75849 0.50566-0.75849-0.50566-0.75849zm-0.75849-1.0113q-0.50566 0-0.50566 1.0113 0 0.75849 0.50566 0.75849t0.50566-0.75849q0-1.0113-0.50566-1.0113zm11.63-2.0226q-0.50566 0-0.50566 0.75849t0.50566 0.75849 0.50566-0.75849-0.50566-0.75849zm-6.5736-0.25283q-0.50566 0-0.50566 0.75849t0.50566 0.75849 0.50566-0.75849-0.50566-0.75849zm3.7924 0.25283h1.517v-0.75849h-1.517v0.75849zm-17.951-5.8151q1.7698 0 1.7698-0.75849h-1.7698v0.75849zm-4.5509-1.517v0.75849l0.75848-1.517-0.75848 0.75849zm-16.181-14.664q-0.50566 0-0.50566 0.75849 0 0.75848 0.50566 0.75848t0.50566-0.75848q0-0.75849-0.50566-0.75849zm27.558-55.875q0.50565 0 0.50565 0.75849t-0.50565 0.75849q-0.50566 0-0.50566-0.75849t0.50566-0.75849zm-46.006 189.38q-2.2755 0-2.2755 2.5283v0.75848l3.034-3.2868h-0.75849zm-11.883 1.517q0-0.75849-0.75849-0.75849t-0.75849 0.75849q0 0.50566 0.75849 0.50566t0.75849-0.50566zm20.479-3.5396q-0.50566 0-0.50566 0.75849 0 0.75848 0.50566 0.75848 0.75849 0 0.75849-0.75848 0-0.75849-0.75849-0.75849zm-15.675-1.7698q-0.50566 0-0.50566 0.75849t0.50566 0.75849 0.50566-0.75849-0.50566-0.75849zm9.6075 1.0113q0-0.50566-1.0113-0.50566-0.75849-0.25283-0.75849 0.25283t0.75849 0.75849q1.0113 0 1.0113-0.50566zm3.034-2.2755q-0.50566 0-0.50566 0.75848 0 0.75849 0.50566 0.75849t0.50566-0.75849q0-0.75848-0.50566-0.75848zm-4.8038-2.0226q-0.50566 0-0.50566 1.0113 0 0.75849 0.50566 0.75849t0.50566-0.75849q0-1.0113-0.50566-1.0113zm-7.8377-0.75849q0-0.50566-0.75849-0.50566t-0.75849 0.50566 0.75849 0.50566 0.75849-0.50566zm14.158-0.50566q-0.50566 0-0.50566 0.75849t0.50566 0.75849 0.50566-0.75849-0.50566-0.75849zm-7.5849-2.5283q-0.50566-0.50566-1.517 0.25283-0.75849 0.75849-0.25283 1.2642 0.50566 0.50566 1.2641-0.25283 1.0113-0.75849 0.50566-1.2642zm1.517 0.75849q-0.50566 0-0.75849 0.75849 0 0.75848 0.50566 0.75848t0.50566-0.75848q0.25283-0.75849-0.25283-0.75849zm-6.3207-0.75849h0.75849q0.75849 0 1.2641-0.25283 0.75849-0.25283 1.2641-1.517l-3.2868 1.7698zm11.124-0.50566q-0.50566 0-0.50566 0.75849t0.50566 0.75849 0.50566-0.75849-0.50566-0.75849zm-12.641-2.0226q-0.50566 0-0.50566 1.0113 0 0.75849 0.50566 0.75849t0.50566-0.75849q0-1.0113-0.50566-1.0113zm17.445 0.25283q-0.50566 0-0.50566 1.0113 0 0.75849 0.50566 0.75849t0.50566-0.75849q0-1.0113-0.50566-1.0113zm-22.249-5.8151q-0.50566 0-0.50566 0.75849t0.50566 0.75849q0.75849 0.25283 0.75849-0.50566t-0.75849-1.0113zm6.3207 1.7698h1.7698v-1.517l-1.7698 1.517zm6.3207-0.75849q-0.50566 0-0.50566 0.75849 0 0.75848 0.50566 0.75848t0.50566-0.75848q0-0.75849-0.50566-0.75849zm7.8377 0.25283q-0.50566 0-0.50566 0.75849 0 0.75848 0.50566 0.75848 0.75849 0 0.75849-0.75848 0-0.75849-0.75849-0.75849zm-3.034-1.7698q-0.50566 0-0.50566 1.0113 0 0.75849 0.50566 0.75849t0.50566-0.75849q0-1.0113-0.50566-1.0113zm6.5736-3.7924q-1.7698 0-3.034 1.0113-1.2641 1.0113-1.2641 2.7811 3.7924 0 4.2981-3.7924zm1.2641 2.2755q-0.50566 0-0.50566 0.75848 0 0.75849 0.50566 0.75849t0.50566-0.75849q0-0.75848-0.50566-0.75848zm-29.834-1.2642 4.8038-1.517-3.034-1.517-1.7698 3.034zm12.894-2.0226q0 0.50566 0 1.2642 0 0.50566 1.2641 1.0113l1.7698-1.517-3.034-1.517v0.75848zm9.1019 1.7698q-0.50566 0-0.50566 0.75849t0.50566 0.75849 0.50566-0.75849-0.50566-0.75849zm-20.226-7.57q1.2641 1.7698 2.0226 2.5283 1.0113 0.50566 1.7698 0.75849 1.0113 0.25283 2.0226 1.0113 1.0113 0.50566 2.0226 2.2755 1.2641-2.5283 2.7811-4.2981 1.7698-1.7698 3.5396-3.5396-1.7698 0.50566-3.5396 1.7698-1.517 1.0113-2.7811 2.7811v-4.5509q-1.7698 0.50566-4.0453 1.2642-2.0226 0.50566-3.7924 0zm20.479 5.3094q1.2641-0.50566 1.2641-1.2642 0.25283-0.75849 0.25283-1.2642v-0.75849l-1.517 3.2868zm-1.517-2.5283q-0.50566 0-0.50566 1.0113 0 0.75849 0.50566 0.75849t0.50566-0.75849q0-1.0113-0.50566-1.0113zm-1.517-2.2755q0-0.50566-1.0113-0.50566-0.75849-0.25283-0.75849 0.25283t0.75849 0.75849q1.0113 0 1.0113-0.50566zm-20.479-3.7924h1.517v-1.517h-1.517v1.517zm10.872-1.2642q-0.50566-0.50566-1.2641 0.25283-0.75849 0.75849-0.25283 1.2642 0.50566 0.75849 1.2641 0 0.75849-1.0113 0.25283-1.517zm18.204-1.2641q-1.2641 0-2.7811 0.25282-1.2641 0.25283-1.2641 2.0226v0.75849q2.0226 0 3.034-0.75849 1.0113-1.0113 1.0113-2.2755zm-14.664-1.7698q0.50566 1.7698 2.0226 1.7698 1.7698-0.25283 3.034-0.25283 0.50566 0 0.75849 0.25283 0.50566 0 1.0113 0h0.75849q0.50566-0.25283 1.0113-1.2642 0.50566-1.0113 1.0113-2.2755 0.50566-1.2641 0.75849-2.5283 0.50566-1.2642 0.50566-1.7698 0.50566 0.50565 1.7698 0.25282 1.517-0.50565 1.517-1.7698 0-0.50566-0.50566-1.7698-0.50566-1.517-1.2641-1.517 0 0.50566-1.2641 1.0113-1.2641 0.50565-1.7698 0.50565-0.50566 0-1.7698-0.50565-1.2641-0.50566-1.2641-1.0113 1.2641 2.0226-0.25283 3.2868-1.2641 1.2642-3.034 1.2642h-9.3547q0.50566 1.0113 1.0113 1.2641 0.75849 0.25283 1.2641 0.25283 0.50566 0 1.0113 0.25283 0.75849 0 1.2641 1.2642-0.50566 1.2641-1.2641 1.517-0.50566 0-1.0113 0-0.50566 0-1.2641 0.25283-0.50566 0.25283-1.0113 1.517h1.517q2.2755 0 3.2868-1.517 1.2641-1.7698 3.7924-1.7698h0.75849l-3.034 3.2868zm-12.642-1.02q-0.50566 0-0.50566 0.75849t0.50566 0.75849 0.50566-0.75849-0.50566-0.75849zm3.034 0q-0.50566 0-0.50566 0.75849t0.50566 0.75849 0.50566-0.75849-0.50566-0.75849zm20.479 0.50566q-0.50566 0-0.50566 0.75849t0.50566 0.75849 0.50566-0.75849-0.50566-0.75849zm6.3207 0q-0.50566 0-0.50566 0.75849t0.50566 0.75849 0.50566-0.75849-0.50566-0.75849zm-15.675-8.0905q-0.50566 0-0.50566 0.75849t0.50566 0.75849 0.50566-0.75849-0.50566-0.75849zm-4.8038-1.7698q-0.50566 0-0.50566 1.0113 0 0.75849 0.50566 0.75849t0.50566-0.75849q0-1.0113-0.50566-1.0113zm3.2868 0q-0.75849 0-0.75849 1.0113 0 0.75849 0.75849 0.75849 0.50566 0 0.50566-0.75849 0-1.0113-0.50566-1.0113zm-3.034-3.034q-0.50566 0-0.75849 0.75849 0 0.75849 0.50566 0.75849t0.50566-0.75849q0.25283-0.75849-0.25283-0.75849zm18.962-1.2641q-0.50566 0-0.50566 0.75849 0 0.75848 0.50566 0.75848t0.50566-0.75848q0-0.75849-0.50566-0.75849zm-29.834-2.2755q-0.75849 0-0.75849 1.0113 0 0.75849 0.75849 0.75849 0.50566 0 0.50566-0.75849 0-1.0113-0.50566-1.0113zm25.03 0.50566q-0.50566 0-0.50566 1.0113 0 0.75849 0.50566 0.75849t0.50566-0.75849q0-1.0113-0.50566-1.0113zm-15.675-1.0113 4.8038-3.034q-1.2641-0.50566-2.0226-1.0113-0.75849-0.50566-2.0226-0.50566h-0.75849v4.5509z"/>
    <path id="path3347" d="m251.18 327.57q0-0.50566-0.50566-2.2755-0.25282-2.0226-0.25282-2.5283 0-0.25283 0.25282-1.2641 0.50566-1.0113 1.0113-2.2755 0.50566-1.2641 1.0113-2.5283 0.50566-1.2642 0.75849-1.7698l1.7698-1.517-0.25283-1.0113v-0.75849l-1.517-1.517 0.25283-1.517q0-0.50566-0.25283-2.7811-0.25283-2.5283-0.50566-5.0566-0.25283-2.7811-0.50566-5.0566t-0.25283-2.7811v-9.6075q0-0.50565-0.75849-2.2755-0.50566-2.0226-0.75849-2.7811v-2.5283q0-1.0113 0-2.0226 0.25283-1.0113 0-1.517 0.25283-12.641 2.5283-26.041t4.2981-25.789l0.50566-78.883-1.7698-3.034q-0.75849 0-3.2868 0-2.5283-0.25283-5.3094-0.50566t-5.3094-0.25283q-2.5283-0.25283-3.2868-0.25283-0.50565 0-1.517-0.25283-1.0113-0.25283-2.2755-0.75848-1.2641-0.50566-2.5283-0.75849 0-0.75849-0.25283-1.7698-0.25283-0.75849-0.25283-1.517 0-1.0113-0.25283-1.517l1.0113-3.034 2.7811-1.7698q5.3094-0.25283 10.113-0.25283 4.2981 0 8.3434 0 4.2981 0 6.8264 0.25283 0.50566 0 2.5283 0.25283 2.2755 0 4.5509 0.25283 2.2755 0 4.2981 0.25283 2.2755 0 2.7811 0 0.25283 0 1.517-0.25283 1.2641-0.25283 2.5283-0.25283 1.2642-0.25283 2.5283-0.50566 1.2642-0.25283 1.517-0.25283 1.0113 0 6.3207 0.25283 5.5622 0 11.63 0 6.3207 0 11.63 0.25283 5.3094 0 5.8151 0 0.25283 0 1.2642 0 1.2641 0 2.5283 0.25283 1.517 0 2.5283 0 1.2642 0 1.517 0 0.50566 0 2.2755-0.75849 1.7698-0.75848 2.2755-0.75848 0.75848 0 3.034 0t4.8038 0 4.8038 0 3.034 0v14.917q-2.5283 0.25283-4.8038 0.50566-2.0226 0.25282-4.0453 0.50565-2.0226 0-3.5396 0.25283h-1.7698q-0.50566-0.25283-1.517 0t-2.2755 0.50566q-1.2641 0.25283-2.5283 0.50566-0.50566 0.50566-1.7698 1.517t-1.2641 1.517l-0.50566 56.887q-1.517 0-1.517 1.517l1.517 3.034v1.7698l-0.25283 1.517q0 0.25282-0.25283 1.517 0 1.0113-0.25283 2.5283-0.25283 1.2642-0.50566 2.5283-0.25283 1.0113-0.25283 1.2641-0.50566 4.0453 0 8.0905 0.75849 4.0453-1.7698 7.3321 1.0113 16.181 1.2641 31.856 0.25283 15.423 1.517 31.604-0.25283 0.50566-0.25283 2.2755 0.25283 1.7698 0.25283 2.2755 0 1.2642 0 3.7924 0.25283 2.2755 0.50566 4.8038t0.50566 4.8038q0.25283 2.0226 0.25283 2.7811 0.50565 3.7924 2.7811 4.5509 2.5283 0.75848 5.3094 0.75848 3.034 0 5.5622 0.25283 2.7811 0.25283 3.7924 3.034 0 0.25283 0 1.517 0.25283 1.0113 0.50566 2.2755 0.25283 1.2641 0.50566 2.5283t0.25283 1.7698l0.25283 0.75849q-0.50566 0-2.2755 0-1.517 0-3.2868 0t-3.2868 0-2.2755 0q-0.25283 0-1.7698 0.25283-1.2642 0.25283-3.034 0.25283-1.7698 0.25283-3.2868 0.25283-1.2642 0.25283-1.517 0.25283-0.50566 0-3.7924 0-3.034 0-7.8377 0-4.8038 0-10.619-0.25283-5.5622 0-10.872-0.25283-5.3094 0-9.3547 0t-5.5622-0.25283q-8.849 0.25283-17.192 1.0113-8.3434 0.75849-17.192 0.25283 0-0.25283 0.25283-1.7698 0.50566-1.517 1.0113-3.034 0.50566-1.7698 1.0113-3.034 0.75849-1.2642 1.0113-1.2642l8.5962 0.50566zm2.2755-8.0905q-0.50566 0-0.50566 1.0113 0 0.75849 0.50566 0.75849t0.50566-0.75849q0-1.0113-0.50566-1.0113zm31.604-22.502q-0.50566-0.25283-0.50566 0.50566 0.25283 0.75849 0.75848 1.0113 0.50566 0 0.25283-0.75849 0-0.75849-0.50565-0.75849zm-1.2642-15.928q-0.75849 0-0.75849 0.75849t0.75849 0.75849q0.50566 0 0.50566-0.75849t-0.50566-0.75849zm-17.445-4.0453q-0.50565-0.25283-0.50565 0.50566t0.50565 1.0113q0.50566 0 0.50566-0.75849t-0.50566-0.75849zm7.8377 0.25283q-0.50566 0-0.50566 0.75849t0.50566 0.75849 0.50566-0.75849-0.50566-0.75849zm-1.2641-1.517q-0.50566 0-0.75849 0.75849 0 0.75849 0.50566 0.75849t0.50566-0.75849q0.25283-0.75849-0.25283-0.75849zm3.034-10.872q-0.50566-0.25283-0.75849 0.75849 0 0.75849 0.50566 0.75849 0.75849 0.25283 0.75849-0.50566 0.25283-1.0113-0.50566-1.0113zm12.641-13.653q-0.50566 0-0.75849 0.75849 0 0.75848 0.50566 0.75848t0.50566-0.75848q0.25282-0.75849-0.25283-0.75849zm0.50565-32.868q-0.75848-1.0113-2.0226 0.25283-1.2642 1.0113-0.25283 2.2755 1.0113 0.50566 2.0226-0.50566 1.2641-1.0113 0.25282-2.0226zm-6.5736-3.5396q-0.75849 0-1.0113 1.0113 0 0.75849 0.75849 1.2642 1.0113 0 1.0113-1.0113 0.25283-1.2642-0.75849-1.2642zm6.5736-1.7698q-0.75848-0.50566-0.50565 1.0113 0.25283 1.2642 1.0113 1.2642 0.75849 0 0.50566-1.0113 0-1.2641-1.0113-1.2641zm-9.1018-4.2981q-0.75849 0-0.75849 1.2641 0 1.0113 0.75849 1.0113 1.0113 0 1.0113-1.0113 0-1.2641-1.0113-1.2641zm27.306 1.517q0-1.0113-1.0113-1.0113t-1.2642 1.0113q0 1.2642 1.0113 1.2642 1.2642 0 1.2642-1.2642zm-11.377-7.0792q-2.0226-0.25283-3.5396 0.50566-1.517 0.50566-3.2868 1.2642l6.8264 0.50566v-2.2755zm-24.524-2.2755q-0.75849 0-1.0113 1.0113-0.25283 1.0113 0.50566 1.0113 1.0113 0 1.0113-1.0113 0.25283-1.0113-0.50566-1.0113zm1.7698-6.0679q0 0.75849-0.50566 1.517-0.50566 0.75849-1.2642 0.75849h2.0226q4.2981 0.50566 4.8038-3.034 0-1.517-2.0226-2.5283t-3.7924-1.0113h-1.0113q0.75849 0 1.2642 1.7698 0.75849 1.7698 0.50566 2.5283zm0.25283-13.4q-0.25283-1.0113-1.2642-1.0113-0.75849 0-0.75849 1.0113t1.0113 1.0113 1.0113-1.0113zm-9.1019-6.0679q-0.75849 0-0.75849 1.0113t0.75849 1.0113q1.0113 0 1.0113-1.0113t-1.0113-1.0113zm4.8038 0.25283q-1.2642-0.25283-1.2642 0.75849t1.2642 1.2642q1.0113 0 1.0113-1.0113t-1.0113-1.0113zm29.581-3.034q-1.2642 0-1.2642 1.0113t1.2642 1.0113q0.75849 0 0.75849-1.0113t-0.75849-1.0113zm-2.5283-9.3547q-1.0113 0-1.0113 1.0113t1.0113 1.0113q0.75848 0.25283 0.75848-0.75849t-0.75848-1.2641zm-27.306-27.558q0.25283-0.50566-0.50566-0.50566t-0.75849 0.50566q-0.25283 0.75849 0.50566 0.75849t0.75849-0.75849zm-4.5509-2.5283q-0.75849 0-0.75849 0.75849 0.25283 0.75849 1.0113 0.75849 0.50566 0.25283 0.25283-0.50566 0-0.75849-0.50566-1.0113z"/>
    <path id="path3349" d="m364.62 332.88q0-1.7698 0.75849-5.3094 0.75848-3.5396 2.5283-4.5509 1.0113 0 3.034 0 2.2755-0.25283 4.8038-0.25283t4.5509 0q2.2755-0.25283 3.034-0.25283 3.5396 0 6.8264-0.25283 3.5396-0.25283 7.0792-1.7698v-0.75849q0-1.2642-1.517-1.0113-1.517 0-1.517-1.2641v-0.75849q1.2642-3.5396 1.517-7.332 0.25283-3.7924 0.25283-7.332 0-1.7698 0-3.7924 0-2.2755-0.50566-4.0453 0.50566-16.181 0-32.109-0.50566-16.181 0.50566-32.615 0-0.50565-0.50566-1.517-0.25283-1.0113-0.25283-1.517-1.0113-10.619-1.7698-21.49-0.75848-10.872-1.2641-21.996-0.50566-10.619-1.2642-21.238-0.50566-10.619-0.25283-20.985 0.25283-2.0226 1.0113-2.5283 0.75849-0.50566 0.75849-2.2755t-0.75849-2.0226q-0.50566-0.50566-2.2755-1.0113-1.0113 0-3.2868 0t-5.0566 0q-2.5283-0.25283-4.8038-0.25283t-3.034 0q-3.034 0-5.8151-1.0113t-2.7811-4.5509q0.25283-2.2755 0.25283-5.5622 0-3.2868 2.2755-4.5509 12.136 0.50565 25.283 0.50565 13.4-0.25283 26.8-0.50565 13.653-0.50566 26.8-0.75849 13.4-0.50566 25.536-0.25283 2.7811 0.25283 3.5396 0 1.0113-0.25283 3.034 1.0113l0.75849-0.75849h5.5622 3.2868q1.0113 0 2.0226 0.25283l2.2755 0.75848q0.50566 0 1.7698-0.25282 1.517-0.50566 2.0226-0.50566h5.5622q2.2755 0 6.8264 0.25283t9.3547 0.50565q5.0566 0.25283 9.6075 0.50566 4.8038 0.25283 7.0792 0.25283 4.5509 6.0679 8.0905 13.147 3.5396 6.8264 2.2755 14.917 0 0.50566 0.50566 3.5396 0.50566 2.7811 1.0113 6.0679 0.50566 3.034 1.0113 6.0679 0.50565 2.7811 0.50565 3.2868v0.75849q0 1.0113-1.517 2.0226-1.517 0.75849-3.5396 1.517-2.0226 0.75849-4.0453 1.2642-1.7698 0.50566-2.5283 0.50566-2.0226 0-4.2981-2.7811t-4.2981-6.3207-3.7924-6.8264q-1.7698-3.5396-2.7811-5.0566-0.25283-0.50566-1.2641-1.7698t-2.2755-2.5283q-1.2641-1.2642-2.5283-2.2755-1.0113-1.0113-1.7698-1.2642-0.75848-3.2868-1.7698-4.5509-0.75849-1.2641-2.0226-1.517-1.2641-0.50566-3.2868-0.25283-2.0226 0-4.8038-0.25283-0.25282 0-2.2755-0.50566-1.0113-0.25283-1.7698-0.25283h-0.75849l-1.517 0.75849q-1.2642 0-5.0566 0-3.5396-0.25283-4.8038-0.25283-0.50566 0-2.5283 0.50566-1.7698 0.25283-2.2755 0.25283h-0.75849-0.75849q-2.5283-0.75849-4.2981-0.75849-1.7698-0.25283-3.2868-0.25283-1.517-0.25283-3.2868-0.50566-1.517-0.50566-4.0453-1.7698-2.5283 0-4.0453 0.50566-1.2641 0.50566-2.2755 1.7698-0.75849 1.0113-1.517 2.7811-0.50566 1.517-1.7698 3.2868v11.377q-1.0113 0.75849-1.0113 2.2755t0.25283 4.5509q0.25283 3.034 0.25283 6.3207 0.25283 3.2868 0.50566 6.3207 0.25283 2.7811 0.25283 4.2981 0 2.2755-2.2755 3.034-2.2755 0.75849-4.0453 0.75849 0.50566 3.034 1.7698 6.0679 1.2641 3.034 3.5396 4.8038l-0.75849 0.75849v0.75849q0 0.50566-0.25283 0.75849 0 0.25283 0 0.75849 0 5.3094 1.517 7.0792 1.517 1.517 3.5396 1.7698 2.2755 0.25283 4.0453 0.25283 2.0226 0 2.5283 2.0226 0.25283-0.75849 1.2642-1.0113 1.2641-0.50566 2.5283-0.50566 1.517-0.25283 2.7811 0 1.2642 0 1.7698 0 2.5283 0.25283 3.7924 0.75849 1.2642 0.50566 2.2755 0.75849t2.2755 0.25283q1.2641 0 3.7924-0.75849 1.7698 0 3.2868 0.50566 1.7698 0.50566 3.5396 0.50566h2.2755q0-0.50566 0.25283-1.517 0.50566-1.0113 0.50566-1.517 0-0.50566 0-3.7924 0-3.2868 0-7.0792 0.25283-4.0453 0.25283-7.332 0-3.2868 0-3.7924 0.25283-0.75849 0.50566-1.2642 0.50566-1.0113 1.2642-1.0113l13.147 0.25283q0.25283 0.25283 0.75849 0.50565 1.2642 0.75849 1.517 1.0113 0.25283 0.25283 0.75849 1.0113 0.50565 0.50566 1.0113 1.0113l1.2642 1.2641v1.517q0.25283 3.7924 0.25283 11.377 0.25283 7.332 0.25283 15.675 0.25283 8.0905 0.25283 15.423 0.25283 7.332 0.50566 11.124 0 0.50566 0.25283 2.0226 0.50565 1.517 0.50565 2.0226v3.7924q0 0.50566-0.25282 2.2755 0 1.7698 0 2.2755-0.25283 0.75849-1.2642 1.2642-1.0113 0.25282-2.2755 0.25282-1.2641 0-2.2755 0-1.0113-0.25282-1.2642-0.25282h-4.5509q-1.517-1.2642-2.5283-4.2981-0.75849-3.034-1.517-6.5736-0.75849-3.7924-1.517-7.0792-0.75849-3.2868-1.517-4.8038-2.5283-3.5396-6.0679-3.5396-3.5396-0.25283-7.0792-0.50566-2.7811-0.50565-4.5509-0.75848t-3.5396-0.50566q-1.517-0.25283-3.5396 0-2.0226 0-5.0566 0.25283-3.7924-0.25283-5.3094 0.25283-1.2641 0.50566-4.5509 1.0113l-1.0113 1.517-0.75849 0.75849q0 1.2641-0.50566 4.8038-0.50566 3.2868-0.50566 4.5509l-0.75848 1.517q0 0.50566 0 2.0226 0.25282 1.2642 1.517 1.7698 0 2.5283 0 3.5396 0 0.75849 0.25283 1.2642 0.25283 0.50566 0.25283 1.2641 0 0.75849 0 3.5396v3.034l-1.517 3.034 0.50566 2.2755q0.50566 7.5849 1.2642 15.17 1.0113 7.5849 0.75849 15.675 0 4.5509-0.50566 9.6075t-0.50566 9.6075q0 0.50566-0.25283 2.2755 0 1.7698 0 2.5283-0.75849 1.2642 0.50566 1.517 1.2642 0 1.7698 0 2.2755 0.25283 4.5509-0.50566 2.5283-0.75849 5.3094-0.75849 1.2642 0 1.0113 0.25283 0 0-0.50566 0.25283-0.25283 0-0.25283 0.25283 0 0 1.0113 0 2.2755 0 4.2981-0.25283t4.8038-0.25283h6.3207q1.2641 0 2.0226 2.0226 0.75849 2.0226 1.2642 4.5509 0.50566 2.2755 0.75849 4.2981t0.25283 2.2755q0 0.50566-1.0113 1.517-0.75849 1.0113-1.2642 1.0113l-17.698-0.50566q-0.50566 2.2755-2.0226 2.2755-1.2641 0-2.5283 0l-1.7698 0.75848h-0.75848l-3.034-1.0113q-3.5396 0-6.0679 0.75848-2.5283 0.75849-5.3094 0.75849-2.0226-0.25283-3.2868-0.50566-1.0113-0.50566-2.2755-0.50566-5.0566 0-11.124 0-5.8151 0-10.366 1.2642l-40.958-0.75849q-1.2642 0.50566-4.5509 1.517-3.2868 1.2642-4.5509 1.2642h-2.5283q-2.2755-0.25283-3.034-1.0113-0.75849-0.75849-0.75849-3.034zm70.034-68.011q-0.50566 0-0.50566 0.75849t0.50566 0.75849 0.50566-0.75849-0.50566-0.75849zm-2.2755-7.0792q-0.50566 0-0.50566 0.75849t0.50566 0.75849 0.50566-0.75849-0.50566-0.75849zm-4.8038-28.57q-0.50566 0-0.50566 0.75849t0.50566 0.75849q0.50565 0 0.50565-0.75849t-0.50565-0.75849zm9.6075-10.619q-0.50566 0-0.75849 1.0113 0 0.75849 0.50566 0.75849t0.50566-0.75849q0.25283-1.0113-0.25283-1.0113zm17.698 7.0792q-0.50565 0-0.50565 0.75849t0.50565 0.75849q0.50566 0 0.50566-0.75849t-0.50566-0.75849zm15.675-10.366q-0.50565 0-0.50565 0.50566 0 0.25283 0.50565 0.25283 0.50566 0 0.50566-0.25283 0-0.50566-0.50566-0.50566zm1.2642 0q-0.50566 0-0.50566 0.75849t0.50566 0.75849 0.50566-0.75849-0.50566-0.75849zm-5.0566-0.75849q-0.50565 0-0.50565 0.75849t0.50565 0.75849q0.50566 0 0.50566-0.75849t-0.50566-0.75849zm-0.75848-1.0113q-0.50566 0-0.50566 1.0113 0 0.75849 0.50566 0.75849 0.50565 0 0.50565-0.75849 0-1.0113-0.50565-1.0113zm11.63-2.0226q-0.50566 0-0.50566 0.75849t0.50566 0.75849q0.50565 0 0.50565-0.75849t-0.50565-0.75849zm-6.5736-0.25283q-0.50566 0-0.50566 0.75849t0.50566 0.75849 0.50566-0.75849-0.50566-0.75849zm3.7924 0.25283h1.517v-0.75849h-1.517v0.75849zm-17.951-5.8151q1.7698 0 1.7698-0.75849h-1.7698v0.75849zm-4.5509-1.517v0.75849l0.75849-1.517-0.75849 0.75849zm-16.181-14.664q-0.50566 0-0.50566 0.75849 0 0.75848 0.50566 0.75848t0.50566-0.75848q0-0.75849-0.50566-0.75849zm27.558-55.875q0.50566 0 0.50566 0.75849t-0.50566 0.75849-0.50566-0.75849 0.50566-0.75849zm-46.015 189.37q-2.2755 0-2.2755 2.5283v0.75848l3.034-3.2868h-0.75849zm-11.883 1.517q0-0.75849-0.75849-0.75849-0.75848 0-0.75848 0.75849 0 0.50566 0.75848 0.50566 0.75849 0 0.75849-0.50566zm20.479-3.5396q-0.50566 0-0.50566 0.75849 0 0.75848 0.50566 0.75848 0.75849 0 0.75849-0.75848 0-0.75849-0.75849-0.75849zm-15.675-1.7698q-0.50566 0-0.50566 0.75849t0.50566 0.75849 0.50566-0.75849-0.50566-0.75849zm9.6075 1.0113q0-0.50566-1.0113-0.50566-0.75849-0.25283-0.75849 0.25283t0.75849 0.75849q1.0113 0 1.0113-0.50566zm3.034-2.2755q-0.50566 0-0.50566 0.75848 0 0.75849 0.50566 0.75849t0.50566-0.75849q0-0.75848-0.50566-0.75848zm-4.8038-2.0226q-0.50566 0-0.50566 1.0113 0 0.75849 0.50566 0.75849t0.50566-0.75849q0-1.0113-0.50566-1.0113zm-7.8377-0.75849q0-0.50566-0.75849-0.50566t-0.75849 0.50566 0.75849 0.50566 0.75849-0.50566zm14.158-0.50566q-0.50566 0-0.50566 0.75849t0.50566 0.75849 0.50566-0.75849-0.50566-0.75849zm-7.5849-2.5283q-0.50566-0.50566-1.517 0.25283-0.75849 0.75849-0.25283 1.2642 0.50566 0.50566 1.2641-0.25283 1.0113-0.75849 0.50566-1.2642zm1.517 0.75849q-0.50566 0-0.75849 0.75849 0 0.75848 0.50566 0.75848t0.50566-0.75848q0.25283-0.75849-0.25283-0.75849zm-6.3207-0.75849h0.75849q0.75849 0 1.2642-0.25283 0.75849-0.25283 1.2642-1.517l-3.2868 1.7698zm11.124-0.50566q-0.50566 0-0.50566 0.75849t0.50566 0.75849q0.50565 0 0.50565-0.75849t-0.50565-0.75849zm-12.641-2.0226q-0.50566 0-0.50566 1.0113 0 0.75849 0.50566 0.75849t0.50566-0.75849q0-1.0113-0.50566-1.0113zm17.445 0.25283q-0.50566 0-0.50566 1.0113 0 0.75849 0.50566 0.75849t0.50566-0.75849q0-1.0113-0.50566-1.0113zm-22.249-5.8151q-0.50566 0-0.50566 0.75849t0.50566 0.75849q0.75849 0.25283 0.75849-0.50566t-0.75849-1.0113zm6.3207 1.7698h1.7698v-1.517l-1.7698 1.517zm6.3207-0.75849q-0.50566 0-0.50566 0.75849 0 0.75848 0.50566 0.75848t0.50566-0.75848q0-0.75849-0.50566-0.75849zm7.8377 0.25283q-0.50566 0-0.50566 0.75849 0 0.75848 0.50566 0.75848 0.75849 0 0.75849-0.75848 0-0.75849-0.75849-0.75849zm-3.034-1.7698q-0.50566 0-0.50566 1.0113 0 0.75849 0.50566 0.75849 0.50565 0 0.50565-0.75849 0-1.0113-0.50565-1.0113zm6.5736-3.7924q-1.7698 0-3.034 1.0113t-1.2642 2.7811q3.7924 0 4.2981-3.7924zm1.2642 2.2755q-0.50566 0-0.50566 0.75848 0 0.75849 0.50566 0.75849 0.50565 0 0.50565-0.75849 0-0.75848-0.50565-0.75848zm-29.834-1.2642 4.8038-1.517-3.034-1.517-1.7698 3.034zm12.894-2.0226q0 0.50566 0 1.2642 0 0.50566 1.2642 1.0113l1.7698-1.517-3.034-1.517v0.75848zm9.1019 1.7698q-0.50566 0-0.50566 0.75849t0.50566 0.75849q0.50565 0 0.50565-0.75849t-0.50565-0.75849zm-20.226-7.5849q1.2641 1.7698 2.0226 2.5283 1.0113 0.50566 1.7698 0.75849 1.0113 0.25283 2.0226 1.0113 1.0113 0.50566 2.0226 2.2755 1.2641-2.5283 2.7811-4.2981 1.7698-1.7698 3.5396-3.5396-1.7698 0.50566-3.5396 1.7698-1.517 1.0113-2.7811 2.7811v-4.5509q-1.7698 0.50566-4.0453 1.2642-2.0226 0.50566-3.7924 0zm20.479 5.3094q1.2641-0.50566 1.2641-1.2642 0.25283-0.75849 0.25283-1.2642v-0.75849l-1.517 3.2868zm-1.517-2.5283q-0.50566 0-0.50566 1.0113 0 0.75849 0.50566 0.75849t0.50566-0.75849q0-1.0113-0.50566-1.0113zm-1.517-2.2755q0-0.50566-1.0113-0.50566-0.75849-0.25283-0.75849 0.25283t0.75849 0.75849q1.0113 0 1.0113-0.50566zm-20.479-3.7924h1.517v-1.517h-1.517v1.517zm10.872-1.2642q-0.50566-0.50566-1.2642 0.25283-0.75849 0.75849-0.25283 1.2642 0.50566 0.75849 1.2642 0 0.75849-1.0113 0.25283-1.517zm18.204-1.2641q-1.2642 0-2.7811 0.25282-1.2642 0.25283-1.2642 2.0226v0.75849q2.0226 0 3.034-0.75849 1.0113-1.0113 1.0113-2.2755zm-14.664-1.7698q0.50566 1.7698 2.0226 1.7698 1.7698-0.25283 3.034-0.25283 0.50565 0 0.75848 0.25283 0.50566 0 1.0113 0h0.75849q0.50566-0.25283 1.0113-1.2642 0.50566-1.0113 1.0113-2.2755 0.50566-1.2641 0.75849-2.5283 0.50566-1.2642 0.50566-1.7698 0.50566 0.50565 1.7698 0.25282 1.517-0.50565 1.517-1.7698 0-0.50566-0.50566-1.7698-0.50566-1.517-1.2641-1.517 0 0.50566-1.2642 1.0113-1.2642 0.50565-1.7698 0.50565-0.50565 0-1.7698-0.50565-1.2642-0.50566-1.2642-1.0113 1.2642 2.0226-0.25283 3.2868-1.2641 1.2642-3.034 1.2642h-9.3547q0.50565 1.0113 1.0113 1.2641 0.75849 0.25283 1.2642 0.25283 0.50566 0 1.0113 0.25283 0.75848 0 1.2641 1.2642-0.50566 1.2641-1.2641 1.517-0.50566 0-1.0113 0-0.50566 0-1.2642 0.25283-0.50566 0.25283-1.0113 1.517h1.517q2.2755 0 3.2868-1.517 1.2642-1.7698 3.7924-1.7698h0.75849l-3.034 3.2868zm-12.641-1.0113q-0.50566 0-0.50566 0.75849t0.50566 0.75849 0.50566-0.75849-0.50566-0.75849zm3.034 0q-0.50566 0-0.50566 0.75849t0.50566 0.75849 0.50566-0.75849-0.50566-0.75849zm20.479 0.50566q-0.50566 0-0.50566 0.75849t0.50566 0.75849 0.50566-0.75849-0.50566-0.75849zm6.3207 0q-0.50565 0-0.50565 0.75849t0.50565 0.75849q0.50566 0 0.50566-0.75849t-0.50566-0.75849zm-15.675-8.0905q-0.50565 0-0.50565 0.75849t0.50565 0.75849q0.50566 0 0.50566-0.75849t-0.50566-0.75849zm-4.8038-1.7698q-0.50566 0-0.50566 1.0113 0 0.75849 0.50566 0.75849t0.50566-0.75849q0-1.0113-0.50566-1.0113zm3.2868 0q-0.75849 0-0.75849 1.0113 0 0.75849 0.75849 0.75849 0.50566 0 0.50566-0.75849 0-1.0113-0.50566-1.0113zm-3.034-3.034q-0.50566 0-0.75849 0.75849 0 0.75849 0.50566 0.75849t0.50566-0.75849q0.25283-0.75849-0.25283-0.75849zm18.962-1.2641q-0.50566 0-0.50566 0.75849 0 0.75848 0.50566 0.75848t0.50566-0.75848q0-0.75849-0.50566-0.75849zm-29.834-2.2755q-0.75848 0-0.75848 1.0113 0 0.75849 0.75848 0.75849 0.50566 0 0.50566-0.75849 0-1.0113-0.50566-1.0113zm25.03 0.50566q-0.50566 0-0.50566 1.0113 0 0.75849 0.50566 0.75849t0.50566-0.75849q0-1.0113-0.50566-1.0113zm-15.675-1.0113 4.8038-3.034q-1.2642-0.50566-2.0226-1.0113-0.75848-0.50566-2.0226-0.50566h-0.75849v4.5509z"/>
   </g>
  </g>
 </g>
</svg>
